<svg width="32" height="33" viewBox="0 0 32 33" fill="none" xmlns="http://www.w3.org/2000/svg">
<path d="M13.36 32.2259C5.76 30.8659 0 24.3059 0 16.3858C0 7.58578 7.2 0.385742 16 0.385742C24.8 0.385742 32 7.58578 32 16.3858C32 24.3059 26.24 30.8659 18.64 32.2259L17.76 31.5059H14.24L13.36 32.2259Z" fill="#091426"/>
<path d="M22.24 20.8656L22.96 16.3855H18.72V13.2655C18.72 11.9855 19.2 11.0255 21.12 11.0255H23.2V6.94549C22.08 6.78549 20.8 6.62549 19.68 6.62549C16 6.62549 13.44 8.8655 13.44 12.8655V16.3855H9.44V20.8656H13.44V32.1456C14.32 32.3056 15.2 32.3856 16.08 32.3856C16.96 32.3856 17.84 32.3056 18.72 32.1456V20.8656H22.24Z" fill="white"/>
</svg>
