<svg width="89" height="89" viewBox="0 0 89 89" fill="none" xmlns="http://www.w3.org/2000/svg">
<path d="M67.6936 46.4752C67.1323 51.9165 64.7212 57.0005 60.863 60.8782C57.0048 64.756 51.9331 67.1927 46.4947 67.7816C46.3852 67.7803 46.2766 67.8009 46.1751 67.8422C46.0737 67.8835 45.9816 67.9447 45.9041 68.0221C45.8267 68.0996 45.7655 68.1917 45.7242 68.2931C45.6829 68.3946 45.6623 68.5032 45.6636 68.6127V86.3991C45.6636 86.8399 45.4885 87.2627 45.1767 87.5745C44.865 87.8862 44.4422 88.0613 44.0013 88.0613C43.5605 88.0613 43.1377 87.8862 42.8259 87.5745C42.5142 87.2627 42.3391 86.8399 42.3391 86.3991V79.9455C42.3232 79.7303 42.2306 79.528 42.078 79.3755C41.9254 79.2229 41.7231 79.1302 41.5079 79.1144C34.1148 78.5161 27.1022 75.5875 21.4795 70.7502C15.8567 65.9128 11.9137 59.4162 10.2181 52.1954C10.155 51.9814 10.1356 51.757 10.161 51.5354C10.1864 51.3138 10.2562 51.0995 10.3662 50.9055C10.4762 50.7114 10.6241 50.5415 10.8011 50.4058C10.9781 50.2701 11.1806 50.1714 11.3966 50.1156C11.6126 50.0598 11.8376 50.048 12.0582 50.081C12.2788 50.114 12.4905 50.191 12.6807 50.3075C12.8709 50.424 13.0357 50.5776 13.1653 50.7592C13.2949 50.9407 13.3867 51.1465 13.4351 51.3642C14.9425 57.8458 18.4575 63.6861 23.479 68.0527C28.5005 72.4193 34.7723 75.0894 41.4004 75.6823C41.6155 75.7899 41.8208 75.6823 42.0262 75.477C42.1347 75.4157 42.2225 75.3234 42.2782 75.2119C42.334 75.1004 42.3552 74.9748 42.3391 74.8512V68.6127C42.3404 68.5032 42.3198 68.3946 42.2785 68.2931C42.2372 68.1917 42.176 68.0996 42.0985 68.0221C42.0211 67.9447 41.929 67.8835 41.8275 67.8422C41.7261 67.8009 41.6174 67.7803 41.5079 67.7816C36.0955 67.1786 31.0448 64.767 27.1733 60.937C23.3025 57.0467 20.886 51.9445 20.3286 46.485C20.2969 46.2852 20.1966 46.1027 20.0449 45.9688C19.8932 45.835 19.6997 45.7582 19.4975 45.7516H1.71116C1.25733 45.7516 0.822093 45.5713 0.501188 45.2504C0.180283 44.9295 0 44.4943 0 44.0404C0 43.5866 0.180283 43.1514 0.501188 42.8305C0.822093 42.5096 1.25733 42.3293 1.71116 42.3293H8.46781C8.66943 42.3209 8.86203 42.2434 9.01335 42.1099C9.16466 41.9764 9.26549 41.7949 9.29895 41.5959C9.74265 34.2139 12.4855 27.1557 17.1429 21.4111C21.8003 15.6665 28.1387 11.5235 35.2695 9.56296C35.7013 9.48099 36.1482 9.56736 36.5183 9.80435C36.8885 10.0413 37.154 10.411 37.2603 10.8375C37.3666 11.264 37.3057 11.715 37.0901 12.098C36.8744 12.481 36.5204 12.767 36.1006 12.8973C29.7211 14.6176 24.0379 18.2871 19.8448 23.3936C15.6517 28.5 13.1578 34.7885 12.7115 41.3808C12.6839 41.5023 12.685 41.6285 12.7147 41.7494C12.7444 41.8703 12.8018 41.9827 12.8825 42.0776C12.9631 42.1725 13.0648 42.2473 13.1794 42.2961C13.294 42.3448 13.4183 42.3663 13.5426 42.3586H19.4584C19.6605 42.352 19.8541 42.2752 20.0058 42.1414C20.1575 42.0075 20.2578 41.825 20.2895 41.6253C20.8432 36.174 23.2534 31.0786 27.1162 27.1925C30.9791 23.3065 36.0601 20.866 41.5079 20.2797C41.6174 20.281 41.7261 20.2604 41.8275 20.2191C41.929 20.1778 42.0211 20.1167 42.0985 20.0392C42.176 19.9618 42.2372 19.8696 42.2785 19.7682C42.3198 19.6668 42.3404 19.5581 42.3391 19.4486V1.66227C42.3391 1.22141 42.5142 0.798605 42.8259 0.486869C43.1377 0.175132 43.5605 0 44.0013 0C44.4422 0 44.865 0.175132 45.1767 0.486869C45.4885 0.798605 45.6636 1.22141 45.6636 1.66227V21.8344C45.6748 22.0698 45.6366 22.3049 45.5516 22.5247C45.4666 22.7445 45.3367 22.9441 45.17 23.1107C45.0034 23.2773 44.8038 23.4073 44.584 23.4923C44.3643 23.5773 44.1291 23.6154 43.8938 23.6043C25.8141 23.6043 16.7792 45.7418 29.5591 58.5316C42.3391 71.3213 64.1539 62.169 64.4668 44.0307C64.4642 43.8116 64.5054 43.5943 64.588 43.3915C64.6706 43.1886 64.793 43.0043 64.9479 42.8494C65.1027 42.6945 65.287 42.5722 65.4899 42.4896C65.6928 42.407 65.9101 42.3658 66.1291 42.3684H86.2915C86.7453 42.3684 87.1806 42.5487 87.5015 42.8696C87.8224 43.1905 88.0027 43.6257 88.0027 44.0796C88.0027 44.5334 87.8224 44.9686 87.5015 45.2895C87.1806 45.6104 86.7453 45.7907 86.2915 45.7907H79.6424C79.4361 45.7824 79.2345 45.854 79.0797 45.9907C78.9249 46.1273 78.8287 46.3183 78.8113 46.5241C78.2717 53.9522 75.3989 61.0199 70.6033 66.7182C65.8076 72.4164 59.3342 76.4538 52.1074 78.2539C49.9268 78.7722 49.1739 75.4476 51.374 74.9294C57.828 73.3247 63.6159 69.7357 67.9224 64.6679C72.2289 59.6 74.8369 53.3089 75.3792 46.6805C75.4067 46.5591 75.4056 46.4329 75.376 46.3119C75.3463 46.191 75.2888 46.0786 75.2082 45.9837C75.1275 45.8888 75.0259 45.814 74.9113 45.7653C74.7967 45.7165 74.6723 45.6951 74.548 45.7027H68.5247C68.3226 45.7093 68.129 45.7861 67.9773 45.92C67.8256 46.0538 67.7253 46.2363 67.6936 46.4361V46.4752ZM81.158 18.8228L69.1408 30.7716C68.8471 31.0903 68.4394 31.2801 68.0065 31.2996H59.9983C59.7797 31.3188 59.5686 31.3891 59.3822 31.505L45.1454 45.8494C44.8252 46.1485 44.4016 46.3117 43.9635 46.3047C43.5255 46.2977 43.1072 46.1211 42.7968 45.8119C42.4864 45.5028 42.308 45.0853 42.2992 44.6472C42.2905 44.2092 42.452 43.7849 42.7497 43.4635L56.9866 29.1093C57.0824 29.0613 57.1626 28.9872 57.218 28.8954C57.2734 28.8037 57.3016 28.6982 57.2995 28.5911V20.5633C57.2975 20.332 57.3424 20.1027 57.4314 19.8893C57.5205 19.6759 57.6519 19.4827 57.8177 19.3215L69.7666 7.38245C69.9973 7.13301 70.2978 6.95883 70.6289 6.88261C70.96 6.80638 71.3064 6.83165 71.623 6.95511C71.9396 7.07857 72.2116 7.2945 72.4037 7.57478C72.5958 7.85506 72.699 8.18669 72.7 8.52648V15.0778C72.7138 15.2937 72.8058 15.4972 72.9588 15.6501C73.1117 15.8031 73.3152 15.8951 73.5311 15.9089H79.9749C80.3186 15.8999 80.657 15.9946 80.9461 16.1808C81.2352 16.3669 81.4615 16.6358 81.5955 16.9524C81.7295 17.269 81.7651 17.6187 81.6975 17.9558C81.6299 18.2929 81.4624 18.6018 81.2167 18.8424L81.158 18.8228ZM67.4687 27.6231L74.4307 20.6611C74.5517 20.5493 74.6371 20.4045 74.6765 20.2446C74.7159 20.0847 74.7075 19.9168 74.6523 19.7616C74.5971 19.6064 74.4976 19.4709 74.3661 19.3718C74.2346 19.2727 74.0768 19.2144 73.9125 19.2041H70.979C70.5249 19.2148 70.0848 19.0464 69.7537 18.7354C69.4226 18.4244 69.227 17.9958 69.2092 17.5419V14.6964C69.2084 14.528 69.1582 14.3636 69.0648 14.2234C68.9714 14.0833 68.839 13.9737 68.6838 13.9081C68.5287 13.8425 68.3578 13.8239 68.1922 13.8545C68.0266 13.8851 67.8736 13.9637 67.7523 14.0804L60.9076 21.0424C60.7249 21.2016 60.6124 21.4265 60.5947 21.6682V27.0755C60.5934 27.185 60.614 27.2937 60.6553 27.3951C60.6966 27.4965 60.7578 27.5887 60.8352 27.6661C60.9127 27.7436 61.0048 27.8047 61.1063 27.846C61.2077 27.8873 61.3163 27.9079 61.4259 27.9066H66.9309C67.146 27.9066 67.3514 27.9066 67.4492 27.6915L67.4687 27.6231ZM58.1209 44.0502C58.1247 46.846 57.2991 49.58 55.7485 51.9064C54.1979 54.2327 51.9919 56.0468 49.4099 57.1189C46.8279 58.191 43.9858 58.473 41.2435 57.9293C38.5011 57.3855 35.9817 56.0404 34.0041 54.0642C32.0265 52.088 30.6796 49.5695 30.134 46.8275C29.5883 44.0855 29.8684 41.2432 30.9387 38.6605C32.009 36.0777 33.8215 33.8705 36.1468 32.3183C38.4721 30.7661 41.2056 29.9385 44.0013 29.9405C44.4214 29.9727 44.8139 30.1623 45.1002 30.4714C45.3865 30.7805 45.5456 31.1863 45.5456 31.6076C45.5456 32.029 45.3865 32.4348 45.1002 32.7439C44.8139 33.053 44.4214 33.2426 44.0013 33.2748C41.1487 33.2748 38.4129 34.408 36.3958 36.4251C34.3787 38.4422 33.2454 41.178 33.2454 44.0307C33.2454 46.8833 34.3787 49.6191 36.3958 51.6362C38.4129 53.6533 41.1487 54.7865 44.0013 54.7865C50.2397 54.7865 54.3954 50.1126 54.6985 44.0307C54.6888 43.7948 54.7277 43.5594 54.8128 43.3391C54.8979 43.1189 55.0274 42.9185 55.1933 42.7505C55.3592 42.5825 55.5579 42.4504 55.777 42.3624C55.9961 42.2745 56.231 42.2326 56.467 42.2393C56.703 42.246 56.9351 42.3013 57.1489 42.4015C57.3627 42.5018 57.5535 42.645 57.7095 42.8222C57.8656 42.9994 57.9835 43.2068 58.0559 43.4315C58.1284 43.6562 58.1538 43.8935 58.1306 44.1284L58.1209 44.0502Z" fill="#E2C987"/>
</svg>
