<svg width="89" height="89" viewBox="0 0 89 89" fill="none" xmlns="http://www.w3.org/2000/svg">
<path d="M14.5763 63.5153C14.0916 63.5137 13.6119 63.4076 13.1647 63.2031C12.7175 62.9986 12.3116 62.6997 11.9701 62.3235C11.6285 61.9473 11.3582 61.5012 11.1744 61.0106C10.9906 60.5201 10.897 59.9947 10.899 59.4646V52.3768H5.51222C2.47338 52.3768 0 49.6531 0 46.3048V6.06994C0 2.72164 2.47338 0 5.51222 0H55.9105C58.9493 0 61.4227 2.72369 61.4227 6.07199V46.3069C61.4227 49.6552 58.9512 52.3789 55.9161 52.3789H26.2036L17.1714 62.3275C16.4655 63.1037 15.5293 63.5153 14.5763 63.5153ZM5.51222 4.04663C5.02341 4.0488 4.55539 4.26312 4.21098 4.64251C3.86657 5.0219 3.67394 5.53531 3.67544 6.06994V46.3048C3.67544 47.4209 4.49927 48.3281 5.51222 48.3281H12.7358C13.7506 48.3281 14.5726 49.2333 14.5726 50.3515V59.4625L24.1441 48.92C24.3142 48.7323 24.5166 48.5832 24.7396 48.4813C24.9626 48.3793 25.2018 48.3266 25.4435 48.3261H55.9161C56.9272 48.3261 57.7473 47.4189 57.7473 46.3028V6.06994C57.7487 5.53531 57.5561 5.0219 57.2117 4.64251C56.8673 4.26312 56.3993 4.0488 55.9105 4.04663H5.51222Z" fill="#E2C987"/>
<path d="M73.4264 88.0613C72.4715 88.0613 71.5372 87.6497 70.8313 86.8735L61.7972 76.9229H32.0829C29.0459 76.9229 26.5762 74.1992 26.5762 70.8509V58.1171C26.5762 56.9989 27.3982 56.0938 28.413 56.0938C29.4278 56.0938 30.2498 56.9989 30.2498 58.1171V70.8509C30.2498 71.967 31.0718 72.8742 32.081 72.8742H62.5555C63.0442 72.8742 63.5104 73.0872 63.8549 73.4681L73.4264 84.0126V74.8995C73.4264 73.7814 74.2483 72.8762 75.2632 72.8762H82.4848C82.9737 72.8741 83.4417 72.6597 83.7861 72.2804C84.1305 71.901 84.3231 71.3875 84.3216 70.8529V30.6139C84.3231 30.0793 84.1305 29.5659 83.7861 29.1865C83.4417 28.8071 82.9737 28.5928 82.4848 28.5906H59.5878C58.573 28.5906 57.751 27.6855 57.751 26.5673C57.751 25.4492 58.573 24.544 59.5878 24.544H82.4905C85.5293 24.544 88.0027 27.2677 88.0027 30.616V70.8509C88.0027 74.1992 85.5293 76.9229 82.4905 76.9229H77.1037V84.0126C77.1054 84.5426 77.0116 85.0678 76.8278 85.5581C76.6439 86.0484 76.3735 86.4943 76.032 86.8703C75.6905 87.2463 75.2846 87.545 74.8375 87.7493C74.3904 87.9537 73.9109 88.0597 73.4264 88.0613ZM30.7104 33.7779C30.4683 33.7771 30.2287 33.7241 30.0053 33.622C29.782 33.5198 29.5792 33.3706 29.4086 33.1826C29.238 32.9947 29.103 32.7719 29.0112 32.5269C28.9194 32.2818 28.8726 32.0194 28.8736 31.7546V25.8096C28.8736 24.6914 29.6956 23.7863 30.7104 23.7863H36.5672V15.3121H24.8537V19.6127C24.8537 20.7308 24.0317 21.636 23.0169 21.636C22.0021 21.636 21.1801 20.7308 21.1801 19.6127V13.2888C21.1801 12.1706 22.0021 11.2655 23.0169 11.2655H38.4039C39.4187 11.2655 40.2407 12.1706 40.2407 13.2888V25.8116C40.2417 26.0764 40.195 26.3389 40.1032 26.5839C40.0114 26.8289 39.8763 27.0518 39.7057 27.2397C39.5351 27.4276 39.3324 27.5769 39.109 27.679C38.8856 27.7812 38.646 27.8341 38.4039 27.8349H32.5472V31.7567C32.5479 32.0213 32.501 32.2835 32.4091 32.5283C32.3172 32.7731 32.1821 32.9957 32.0115 33.1834C31.841 33.3711 31.6383 33.5202 31.415 33.6222C31.1918 33.7242 30.9524 33.7771 30.7104 33.7779Z" fill="#E2C987"/>
<path d="M30.7123 41.1111C31.9811 41.1111 33.0097 39.9788 33.0097 38.582C33.0097 37.1852 31.9811 36.0529 30.7123 36.0529C29.4435 36.0529 28.4149 37.1852 28.4149 38.582C28.4149 39.9788 29.4435 41.1111 30.7123 41.1111Z" fill="#E2C987"/>
<path d="M75.9316 41.2463H66.935C65.9201 41.2463 65.0982 40.3412 65.0982 39.223C65.0982 38.1049 65.9201 37.1997 66.935 37.1997H75.9316C76.9464 37.1997 77.7684 38.1049 77.7684 39.223C77.7684 40.3412 76.9464 41.2463 75.9316 41.2463ZM75.9316 52.2128H66.935C65.9201 52.2128 65.0982 51.3076 65.0982 50.1895C65.0982 49.0713 65.9201 48.1662 66.935 48.1662H75.9316C76.9464 48.1662 77.7684 49.0713 77.7684 50.1895C77.7684 51.3076 76.9464 52.2128 75.9316 52.2128ZM75.9316 63.0891H39.3757C38.3609 63.0891 37.5389 62.184 37.5389 61.0658C37.5389 59.9477 38.3609 59.0425 39.3757 59.0425H75.9316C76.9464 59.0425 77.7684 59.9477 77.7684 61.0658C77.7684 62.184 76.9464 63.0891 75.9316 63.0891Z" fill="#E2C987"/>
</svg>
