<svg width="89" height="89" viewBox="0 0 89 89" fill="none" xmlns="http://www.w3.org/2000/svg">
<path d="M40.0412 33.3604H47.9614C50.6215 33.3604 52.7856 35.0619 52.7856 37.1534C52.7856 37.9875 53.207 38.7875 53.9572 39.3773C54.7073 39.9671 55.7248 40.2985 56.7857 40.2985C57.8466 40.2985 58.864 39.9671 59.6142 39.3773C60.3644 38.7875 60.7858 37.9875 60.7858 37.1534C60.7858 31.6055 55.0536 27.0892 48.0014 27.0734V25.7462C48.0014 24.9121 47.58 24.1121 46.8298 23.5223C46.0797 22.9325 45.0622 22.6012 44.0013 22.6012C42.9404 22.6012 41.923 22.9325 41.1728 23.5223C40.4226 24.1121 40.0012 24.9121 40.0012 25.7462V27.0734C36.6086 27.0842 33.3593 28.1506 30.9637 30.0394C28.5681 31.9283 27.221 34.4859 27.2168 37.1534C27.221 39.8266 28.5735 42.3893 30.9776 44.2795C33.3818 46.1698 36.6412 47.2332 40.0412 47.2365H47.9614C50.6215 47.2365 52.7856 48.938 52.7856 51.0294C52.7856 53.1209 50.6215 54.8224 47.9614 54.8224H40.0412C38.7621 54.8216 37.5356 54.4217 36.6312 53.7105C35.7267 52.9994 35.2181 52.0351 35.217 51.0294C35.217 50.1953 34.7956 49.3954 34.0454 48.8055C33.2953 48.2157 32.2778 47.8844 31.2169 47.8844C30.156 47.8844 29.1386 48.2157 28.3884 48.8055C27.6382 49.3954 27.2168 50.1953 27.2168 51.0294C27.2168 56.5774 32.949 61.0937 40.0012 61.1094V62.4366C40.0012 63.2707 40.4226 64.0707 41.1728 64.6605C41.923 65.2503 42.9404 65.5817 44.0013 65.5817C45.0622 65.5817 46.0797 65.2503 46.8298 64.6605C47.58 64.0707 48.0014 63.2707 48.0014 62.4366V61.1094C51.3941 61.0986 54.6433 60.0322 57.0389 58.1434C59.4345 56.2546 60.7816 53.6969 60.7858 51.0294C60.7816 48.3563 59.4291 45.7935 57.025 43.9033C54.6208 42.0131 51.3614 40.9497 47.9614 40.9463H40.0412C37.3811 40.9463 35.217 39.2449 35.217 37.1534C35.217 35.0619 37.3811 33.3604 40.0412 33.3604Z" fill="#E2C987"/>
<path d="M88.0027 84.9758V3.20393C88.0021 2.64773 87.814 2.1016 87.4574 1.62122C87.1009 1.14084 86.5887 0.743392 85.973 0.469406C85.3574 0.19542 84.6604 0.054696 83.953 0.0615814C83.2457 0.0684668 82.5533 0.222716 81.9465 0.508601L70.6501 5.82692L59.3538 0.508601C58.7321 0.216908 58.0217 0.0628989 57.2977 0.0628989C56.5738 0.0628989 55.8633 0.216908 55.2417 0.508601L43.9693 5.82692L32.701 0.508601C32.0786 0.216958 31.3675 0.0629949 30.6429 0.0629949C29.9184 0.0629949 29.2073 0.216958 28.5849 0.508601L17.3205 5.82377L6.06819 0.508601C5.46045 0.223432 4.76758 0.0697349 4.05989 0.0631058C3.35219 0.0564767 2.65487 0.197152 2.03866 0.470856C1.42245 0.74456 0.909286 1.14155 0.551245 1.62155C0.193205 2.10155 0.00302523 2.64747 4.99819e-06 3.20393V84.9758C-0.00111541 85.5328 0.18615 86.0801 0.542612 86.5615C0.899075 87.0429 1.41192 87.4412 2.02859 87.7155C2.64526 87.9897 3.34359 88.1302 4.05202 88.1224C4.76046 88.1146 5.45351 87.9588 6.06019 87.6711L17.3125 82.3559L28.5769 87.6711C29.1986 87.9644 29.9099 88.1193 30.6349 88.1193C31.3599 88.1193 32.0713 87.9644 32.693 87.6711L43.9613 82.3528L55.2337 87.6711C56.4977 88.2655 58.0818 88.2655 59.3458 87.6711L70.6421 82.3528L81.9385 87.6711C82.5449 87.9584 83.2376 88.1136 83.9455 88.1208C84.6534 88.128 85.351 87.9869 85.9666 87.712C86.5846 87.4393 87.0989 87.042 87.4568 86.5611C87.8147 86.0802 88.0031 85.533 88.0027 84.9758ZM80.0024 79.4247L72.7062 75.9872C72.0853 75.6954 71.3755 75.5414 70.6521 75.5414C69.9288 75.5414 69.219 75.6954 68.5981 75.9872L57.3017 81.3055L46.0294 75.9872C45.4077 75.6939 44.6963 75.539 43.9713 75.539C43.2463 75.539 42.535 75.6939 41.9133 75.9872L30.6449 81.3055L19.3806 75.9872C18.7586 75.6945 18.0474 75.54 17.3225 75.54C16.5977 75.54 15.8864 75.6945 15.2645 75.9872L8.00025 79.4153V8.76441L15.2525 12.1925C16.5125 12.787 18.1006 12.7901 19.3686 12.1925L30.6329 6.87422L41.9013 12.1925C43.1653 12.787 44.7534 12.787 46.0174 12.1925L57.2897 6.87422L68.5861 12.1925C69.8501 12.787 71.4302 12.787 72.6942 12.1925L80.0024 8.75498V79.4247Z" fill="#E2C987"/>
</svg>
