<svg width="89" height="89" viewBox="0 0 89 89" fill="none" xmlns="http://www.w3.org/2000/svg">
<path d="M51.6367 45.5409L44.806 36.1043C44.4167 35.5591 44.2416 34.9144 44.308 34.2711C44.5991 31.4908 44.4187 28.7348 43.7689 26.0644C43.6444 25.5725 43.7414 25.0806 44.0314 24.6255C45.8852 21.7952 45.8155 18.2893 43.8797 15.4838C39.2199 8.8032 31.5738 3.91815 22.3503 1.71629C15.5609 0.1046 8.73036 -0.338512 2.05218 0.424679C0.766133 0.571983 -0.146148 1.61777 0.0194024 2.76183C0.184952 3.90614 1.36028 4.71787 2.64579 4.57081C8.72982 3.88163 14.9527 4.28821 21.1474 5.76365C29.2083 7.6834 35.8733 11.9158 39.897 17.6859C40.934 19.1868 40.9613 21.0453 39.9802 22.5332C39.0982 23.8681 38.8166 25.4506 39.1921 26.9626C39.7449 29.2145 39.897 31.5396 39.6342 33.889C39.4687 35.4519 39.9108 37.0514 40.8654 38.3807L47.6962 47.8173C47.9587 48.1739 48 48.6167 47.8059 48.9858C47.6128 49.3547 47.2117 49.6128 46.7415 49.6748C45.7877 49.7853 44.8754 49.8098 44.0312 49.7368H43.7549C43.7138 49.7368 43.6714 49.7368 43.6442 49.7488C43.6028 49.7488 43.5618 49.7488 43.5197 49.761C43.4921 49.761 43.4648 49.7733 43.4373 49.7733C43.3814 49.7853 43.3266 49.7853 43.2844 49.7978H43.2569C43.2434 49.7978 43.2296 49.8098 43.2158 49.8098C43.1599 49.8221 43.1051 49.8343 43.0638 49.8466C43.0354 49.8596 43.0079 49.8596 42.9806 49.8718C42.9393 49.8838 42.8972 49.9086 42.8561 49.9206C42.8286 49.9328 42.7875 49.9451 42.7589 49.9574C42.7178 49.9703 42.6906 49.9948 42.6482 50.0071C42.6071 50.0191 42.5796 50.0436 42.5523 50.0681C42.5237 50.0811 42.4964 50.1056 42.4688 50.1179C42.44 50.1424 42.4072 50.163 42.3716 50.1789C42.3446 50.2041 42.3171 50.2164 42.2895 50.2407C42.2611 50.2652 42.2336 50.2895 42.2063 50.3149C42.1788 50.3392 42.1515 50.3637 42.1229 50.3882C42.096 50.4098 42.0729 50.4347 42.0543 50.4622C42.027 50.4867 41.9984 50.511 41.9846 50.5487C41.9711 50.573 41.9436 50.5975 41.9298 50.6218C41.9025 50.6593 41.8739 50.6838 41.8601 50.7203L41.819 50.7946C41.7915 50.8311 41.778 50.8679 41.7494 50.9051L41.7083 50.9786C41.6948 51.0161 41.6673 51.0526 41.6535 51.0892C41.6397 51.1146 41.626 51.1512 41.6114 51.1757C41.5976 51.2122 41.5838 51.2377 41.5838 51.2742C41.5703 51.3107 41.5563 51.3485 41.5563 51.385C41.5563 51.4095 41.5428 51.4338 41.5428 51.4715C41.529 51.5203 41.529 51.5568 41.5152 51.6065C41.5152 51.6185 41.5152 51.6431 41.5017 51.6553V51.9011C41.5017 51.9389 41.5017 51.9756 41.5152 52.0119C41.5152 52.0496 41.5152 52.0862 41.5287 52.1227C41.5287 52.1482 41.5428 52.1724 41.5428 52.2092C41.5563 52.258 41.5563 52.2957 41.57 52.332V52.3565L42.5099 55.7159C42.5099 55.7404 42.5237 55.7527 42.5237 55.7769C42.5237 55.7892 42.5236 55.8014 42.5385 55.8137C42.7041 56.2943 42.4551 56.7862 41.9573 56.9955C41.9436 56.9955 41.9298 57.0075 41.9298 57.0075C41.8887 57.0198 41.8466 57.0443 41.8055 57.0685C41.778 57.0818 41.7356 57.1063 41.7083 57.1183C41.6808 57.1305 41.6535 57.155 41.6111 57.1793C41.57 57.2048 41.5428 57.2291 41.5015 57.2536C41.4869 57.2656 41.4731 57.2656 41.4731 57.2778C41.4591 57.2902 41.4453 57.3028 41.4318 57.3156C41.3907 57.3398 41.3624 57.3766 41.321 57.4009C41.2984 57.4218 41.2756 57.4424 41.2525 57.4629C41.2241 57.4874 41.1965 57.5239 41.1693 57.5494C41.1417 57.5734 41.128 57.5979 41.0996 57.6224C41.0721 57.6469 41.0585 57.6722 41.031 57.7089C41.0037 57.7332 40.9899 57.7707 40.9613 57.7952C40.9478 57.8195 40.934 57.844 40.9065 57.8683C40.8792 57.906 40.8654 57.9427 40.8517 57.9668C40.8368 57.9913 40.8233 58.0168 40.8095 58.0413C40.7958 58.0778 40.782 58.1153 40.7547 58.1518C40.7409 58.1763 40.7272 58.2006 40.7272 58.2383C40.7123 58.2748 40.6988 58.3114 40.685 58.3359C40.6713 58.3734 40.6713 58.3979 40.6575 58.4344C40.644 58.4719 40.644 58.4964 40.6302 58.5329C40.6302 58.5695 40.6165 58.6072 40.6165 58.6437C40.6165 58.6682 40.6029 58.7057 40.6029 58.7302V59.0378C40.6029 59.0623 40.6029 59.0991 40.6165 59.1233C40.6165 59.1608 40.63 59.1976 40.63 59.2341C40.63 59.2716 40.6437 59.2961 40.6575 59.3326C40.6713 59.3692 40.6713 59.3946 40.685 59.4312C40.6985 59.4679 40.7123 59.5054 40.7272 59.5419C40.7407 59.5665 40.7407 59.5907 40.7547 59.6162C40.7682 59.6527 40.7958 59.7015 40.8095 59.7392C40.823 59.7512 40.8231 59.7635 40.8231 59.7758C40.8368 59.7878 40.8368 59.8003 40.8517 59.8123C40.8652 59.8377 40.8792 59.862 40.8927 59.8743C40.9203 59.9231 40.9475 59.9608 40.9899 60.0096C40.9899 60.0216 41.0035 60.0216 41.0035 60.0338C41.0448 60.0958 41.0858 60.1446 41.1417 60.1944C41.1417 60.1944 41.1417 60.2066 41.1555 60.2066C41.819 60.9201 41.7356 61.9291 40.9751 62.544C39.938 63.3802 39.3579 64.6353 39.4265 65.8782C39.4817 66.7995 39.284 67.719 38.8504 68.5572C38.4168 69.3954 37.7604 70.127 36.9379 70.6889C35.2646 71.8453 33.0525 72.1896 31.048 71.6115L29.4984 71.1806C27.6457 70.6642 25.613 70.8737 23.9261 71.7465C22.2255 72.6205 21.0094 74.0971 20.5935 75.7819C20.082 77.8367 19.9586 79.9535 20.2065 82.0691C20.2624 82.6972 20.2349 83.3241 20.1104 83.9266C20.0969 83.9266 20.0969 83.94 20.082 83.94L3.71147 79.3253C2.46646 78.981 1.15314 79.5846 0.765863 80.6912C0.378859 81.799 1.05618 82.9675 2.30092 83.3119L18.7136 87.9376C18.7684 87.9499 18.8243 87.9631 18.8794 87.9754C19.2757 88.0735 19.6852 88.123 20.0966 88.1227C20.9533 88.1227 21.7972 87.9134 22.558 87.5078C23.7193 86.8921 24.5073 85.8586 24.7563 84.6777C24.9525 83.7035 25.0036 82.7106 24.9084 81.7245V81.6759C24.7004 80.0022 24.7976 78.3295 25.1984 76.7046C25.3367 76.1639 25.7375 75.6843 26.3051 75.3887C26.8715 75.0932 27.5077 75.0319 28.1165 75.2037L29.6513 75.6346H29.665C30.7707 75.9424 31.9047 76.1019 33.0387 76.1019C35.4725 76.1019 37.8642 75.3887 39.8422 74.0351C42.7316 72.0546 44.3361 68.942 44.1557 65.7063C44.1557 65.6941 44.1694 65.6809 44.1694 65.6809C46.1612 64.0692 46.7972 61.609 45.9808 59.4557C47.1844 58.1763 47.6403 56.4293 47.1013 54.7314L46.8798 53.9317C47.0599 53.9194 47.2393 53.8949 47.4186 53.8706C49.4938 53.6236 51.263 52.4793 52.1342 50.7946C52.9222 49.0598 52.7705 47.1158 51.6365 45.5409C51.6365 45.5529 51.6365 45.5529 51.6365 45.5409H51.6367ZM59.0338 50.2164C59.5181 50.2164 60.0023 50.0811 60.4306 49.8098L82.9422 35.0953C83.1917 34.9326 83.4027 34.7276 83.5629 34.4921C83.7231 34.2566 83.8294 33.9952 83.8757 33.723C83.9219 33.4509 83.9072 33.1732 83.8325 32.9061C83.7577 32.639 83.6243 32.3876 83.4399 32.1665C83.257 31.9446 83.0266 31.757 82.7619 31.6145C82.4972 31.472 82.2035 31.3776 81.8976 31.3365C81.5917 31.2954 81.2797 31.3085 80.9796 31.3751C80.6794 31.4416 80.397 31.5604 80.1486 31.7244L57.6519 46.4391C57.4024 46.6017 57.1914 46.8067 57.0313 47.0421C56.8711 47.2775 56.7648 47.5388 56.7185 47.8109C56.6722 48.083 56.6868 48.3605 56.7616 48.6276C56.8363 48.8946 56.9696 49.1459 57.1539 49.3669C57.3699 49.6303 57.6527 49.8446 57.9794 49.9922C58.3061 50.1398 58.6674 50.2167 59.0338 50.2164ZM85.6523 56.7739H63.0586C61.7588 56.7739 60.7072 57.7087 60.7072 58.8653C60.7072 60.0218 61.7588 60.9566 63.0586 60.9566H85.6523C86.9518 60.9566 88.0027 60.0218 88.0027 58.8653C88.0027 57.7087 86.9521 56.7739 85.6523 56.7739ZM82.7904 82.7825L60.4444 67.8962C59.4073 67.2073 57.9282 67.3911 57.1539 68.3138C56.3796 69.2366 56.5876 70.5534 57.6244 71.2426L79.9693 86.1299C80.3758 86.4018 80.871 86.5485 81.3796 86.5475C81.7444 86.5476 82.1042 86.4721 82.4305 86.327C82.7569 86.1818 83.0407 85.971 83.2595 85.7113C83.4459 85.4919 83.5817 85.2419 83.6591 84.9757C83.7364 84.7094 83.7538 84.4322 83.7101 84.1599C83.6665 83.8877 83.5628 83.6258 83.4049 83.3894C83.247 83.153 83.038 82.9467 82.7901 82.7825H82.7904Z" fill="#E2C987"/>
</svg>
