<svg width="20" height="20" viewBox="0 0 20 20" fill="none" xmlns="http://www.w3.org/2000/svg">
<path d="M12.0272 1.39282C12.0544 1.29129 12.1013 1.19611 12.1652 1.11271C12.2292 1.02931 12.3089 0.959327 12.4 0.906764C12.491 0.854201 12.5914 0.820085 12.6956 0.806367C12.7998 0.792648 12.9057 0.799595 13.0072 0.826812C14.4903 1.21377 15.8435 1.98908 16.9273 3.07289C18.0111 4.1567 18.7864 5.50983 19.1733 6.99292C19.2006 7.09443 19.2075 7.20031 19.1938 7.30451C19.1801 7.40871 19.146 7.50919 19.0934 7.6002C19.0408 7.69121 18.9708 7.77097 18.8874 7.83493C18.804 7.89888 18.7089 7.94578 18.6073 7.97293C18.5398 7.99068 18.4702 7.99976 18.4003 7.99994C18.224 7.99993 18.0527 7.94169 17.9129 7.83428C17.7731 7.72686 17.6727 7.57627 17.6273 7.40592C17.3117 6.19523 16.679 5.09059 15.7943 4.20589C14.9096 3.32119 13.8049 2.68843 12.5942 2.37284C12.4926 2.34579 12.3973 2.29897 12.3138 2.23506C12.2303 2.17115 12.1602 2.09141 12.1075 2.00038C12.0549 1.90936 12.0207 1.80885 12.0069 1.7046C11.9931 1.60035 12 1.4944 12.0272 1.39282ZM11.7942 5.57289C13.1732 5.9409 14.0593 6.82691 14.4273 8.20594C14.4727 8.37629 14.573 8.52687 14.7128 8.63429C14.8526 8.74171 15.024 8.79994 15.2003 8.79995C15.2701 8.79977 15.3397 8.7907 15.4073 8.77295C15.5088 8.74579 15.604 8.6989 15.6874 8.63494C15.7708 8.57099 15.8408 8.49122 15.8933 8.40021C15.9459 8.3092 15.98 8.20873 15.9937 8.10453C16.0074 8.00033 16.0005 7.89445 15.9733 7.79293C15.4613 5.8769 14.1233 4.53888 12.2072 4.02687C12.1057 3.99975 11.9998 3.99289 11.8957 4.00668C11.7915 4.02048 11.6911 4.05465 11.6001 4.10726C11.5092 4.15986 11.4295 4.22987 11.3656 4.31328C11.3017 4.39668 11.2548 4.49186 11.2277 4.59338C11.2006 4.69489 11.1937 4.80075 11.2075 4.90491C11.2213 5.00908 11.2555 5.10951 11.3081 5.20046C11.3607 5.29142 11.4307 5.37112 11.5141 5.43503C11.5975 5.49893 11.6927 5.54577 11.7942 5.57289ZM19.9884 15.1081C19.81 16.4631 19.1446 17.7069 18.1162 18.6072C17.0879 19.5074 15.767 20.0026 14.4003 20.0001C6.46012 20.0001 9.0488e-06 13.54 9.0488e-06 5.59989C-0.00244097 4.23316 0.492705 2.91227 1.39297 1.88393C2.29323 0.855581 3.53704 0.190108 4.89209 0.0117978C5.23475 -0.0300419 5.58175 0.0400602 5.8813 0.21164C6.18084 0.383219 6.41686 0.647073 6.55412 0.963814L8.66616 5.67889V5.6909C8.77125 5.93335 8.81465 6.19806 8.79249 6.46138C8.77032 6.72471 8.68329 6.97844 8.53916 7.19992C8.52116 7.22692 8.50216 7.25192 8.48215 7.27692L6.40012 9.74496C7.14913 11.267 8.74116 12.845 10.2832 13.596L12.7172 11.525C12.7411 11.5049 12.7662 11.4862 12.7922 11.469C13.0135 11.3214 13.2681 11.2313 13.533 11.2069C13.7979 11.1824 14.0647 11.2244 14.3093 11.329L14.3223 11.335L19.0333 13.446C19.3506 13.5828 19.6151 13.8186 19.7873 14.1182C19.9594 14.4178 20.03 14.765 19.9884 15.1081ZM18.4003 14.9081C18.4003 14.9081 18.3933 14.9081 18.3893 14.9081L13.6892 12.803L11.2542 14.8741C11.2306 14.8941 11.2059 14.9128 11.1802 14.9301C10.95 15.0837 10.6838 15.1749 10.4077 15.1949C10.1317 15.2149 9.85514 15.1629 9.60517 15.0441C7.73214 14.139 5.86511 12.286 4.95909 10.433C4.83912 10.1848 4.78529 9.9099 4.80281 9.63482C4.82033 9.35975 4.90861 9.09387 5.0591 8.86295C5.07606 8.83583 5.09512 8.81009 5.1161 8.78595L7.20013 6.31491L5.1001 1.61483C5.0997 1.61084 5.0997 1.60682 5.1001 1.60283C4.13033 1.72933 3.23994 2.205 2.59567 2.94076C1.95139 3.67653 1.59742 4.62192 1.60004 5.59989C1.60374 8.99359 2.95352 12.2472 5.35323 14.6469C7.75293 17.0466 11.0066 18.3964 14.4003 18.4001C15.3776 18.4035 16.3228 18.0507 17.059 17.4079C17.7952 16.765 18.272 15.876 18.4003 14.9071V14.9081Z" fill="#E2C987"/>
</svg>
