<svg width="32" height="33" viewBox="0 0 32 33" fill="none" xmlns="http://www.w3.org/2000/svg">
<path d="M29.7143 0.385742H2.27857C1.02143 0.385742 0 1.42146 0 2.69289V30.0786C0 31.35 1.02143 32.3857 2.27857 32.3857H29.7143C30.9714 32.3857 32 31.35 32 30.0786V2.69289C32 1.42146 30.9714 0.385742 29.7143 0.385742ZM9.67143 27.8143H4.92857V12.5429H9.67857V27.8143H9.67143ZM7.3 10.4572C5.77857 10.4572 4.55 9.22146 4.55 7.70717C4.55 6.19289 5.77857 4.95717 7.3 4.95717C8.81429 4.95717 10.05 6.19289 10.05 7.70717C10.05 9.2286 8.82143 10.4572 7.3 10.4572ZM27.45 27.8143H22.7071V20.3857C22.7071 18.6143 22.6714 16.3357 20.2429 16.3357C17.7714 16.3357 17.3929 18.2643 17.3929 20.2572V27.8143H12.65V12.5429H17.2V14.6286H17.2643C17.9 13.4286 19.45 12.1643 21.7571 12.1643C26.5571 12.1643 27.45 15.3286 27.45 19.4429V27.8143Z" fill="#091426"/>
</svg>
