<svg width="32" height="33" viewBox="0 0 32 33" fill="none" xmlns="http://www.w3.org/2000/svg">
<path d="M28.5714 0.385742H3.42857C1.53571 0.385742 0 1.92146 0 3.81431V28.9572C0 30.85 1.53571 32.3857 3.42857 32.3857H28.5714C30.4643 32.3857 32 30.85 32 28.9572V3.81431C32 1.92146 30.4643 0.385742 28.5714 0.385742ZM25.0786 11.7286C25.0929 11.9286 25.0929 12.1357 25.0929 12.3357C25.0929 18.5286 20.3786 25.6643 11.7643 25.6643C9.10714 25.6643 6.64286 24.8929 4.57143 23.5643C4.95 23.6072 5.31429 23.6215 5.7 23.6215C7.89286 23.6215 9.90714 22.8786 11.5143 21.6215C9.45714 21.5786 7.72857 20.2286 7.13571 18.3715C7.85714 18.4786 8.50714 18.4786 9.25 18.2857C7.10714 17.85 5.5 15.9643 5.5 13.6857V13.6286C6.12143 13.9786 6.85 14.1929 7.61429 14.2215C6.97173 13.7941 6.44499 13.2142 6.08105 12.5337C5.71711 11.8532 5.52731 11.0932 5.52857 10.3215C5.52857 9.45003 5.75714 8.65003 6.16429 7.95717C8.47143 10.8 11.9357 12.6572 15.8214 12.8572C15.1571 9.6786 17.5357 7.10003 20.3929 7.10003C21.7429 7.10003 22.9571 7.66431 23.8143 8.5786C24.8714 8.3786 25.8857 7.98574 26.7857 7.45003C26.4357 8.53574 25.7 9.45003 24.7286 10.0286C25.6714 9.9286 26.5857 9.66431 27.4286 9.30003C26.7929 10.2357 25.9929 11.0643 25.0786 11.7286Z" fill="#091426"/>
</svg>
