<svg width="32" height="33" viewBox="0 0 32 33" fill="none" xmlns="http://www.w3.org/2000/svg">
<path d="M16 12.5757C15.2465 12.576 14.51 12.7997 13.8837 13.2185C13.2573 13.6374 12.7692 14.2325 12.481 14.9287C12.1929 15.6249 12.1176 16.3909 12.2648 17.1299C12.412 17.8689 12.775 18.5476 13.3079 19.0803C13.8408 19.613 14.5196 19.9757 15.2587 20.1226C15.9977 20.2695 16.7637 20.194 17.4598 19.9056C18.1559 19.6172 18.7508 19.1288 19.1694 18.5023C19.588 17.8758 19.8114 17.1392 19.8114 16.3857C19.8107 15.3753 19.4088 14.4064 18.6942 13.692C17.9795 12.9776 17.0105 12.5761 16 12.5757ZM24.9079 9.64717C24.7139 9.15563 24.421 8.70919 24.0474 8.33553C23.6737 7.96188 23.2273 7.66899 22.7357 7.47503C21.2357 6.88289 17.6643 7.01574 16 7.01574C14.3357 7.01574 10.7679 6.87789 9.26357 7.47503C8.77203 7.66899 8.32559 7.96188 7.95193 8.33553C7.57828 8.70919 7.28539 9.15563 7.09143 9.64717C6.5 11.1472 6.63214 14.7222 6.63214 16.385C6.63214 18.0479 6.5 21.6186 7.09429 23.1236C7.28825 23.6151 7.58114 24.0616 7.95479 24.4352C8.32844 24.8089 8.77489 25.1018 9.26643 25.2957C10.7664 25.8879 14.3379 25.755 16.0029 25.755C17.6679 25.755 21.2343 25.8929 22.7386 25.2957C23.2301 25.1018 23.6766 24.8089 24.0502 24.4352C24.4239 24.0616 24.7168 23.6151 24.9107 23.1236C25.5071 21.6236 25.37 18.0486 25.37 16.3857C25.37 14.7229 25.5071 11.1529 24.9107 9.64789L24.9079 9.64717ZM16 22.2429C14.8416 22.2429 13.7091 21.8994 12.7459 21.2558C11.7827 20.6122 11.032 19.6974 10.5887 18.6272C10.1454 17.5569 10.0294 16.3792 10.2554 15.2431C10.4814 14.1069 11.0392 13.0633 11.8584 12.2441C12.6775 11.425 13.7212 10.8671 14.8573 10.6411C15.9935 10.4151 17.1712 10.5311 18.2414 10.9744C19.3117 11.4178 20.2264 12.1685 20.87 13.1317C21.5136 14.0949 21.8571 15.2273 21.8571 16.3857C21.8581 17.1552 21.7072 17.9172 21.4132 18.6283C21.1192 19.3393 20.6878 19.9854 20.1437 20.5295C19.5996 21.0735 18.9536 21.5049 18.2425 21.799C17.5315 22.093 16.7694 22.2438 16 22.2429ZM22.0986 11.65C21.8281 11.6502 21.5638 11.5701 21.3388 11.42C21.1139 11.2698 20.9386 11.0564 20.835 10.8066C20.7314 10.5568 20.7042 10.2819 20.7569 10.0166C20.8096 9.75136 20.9397 9.50769 21.1309 9.31642C21.3221 9.12515 21.5657 8.99487 21.8309 8.94206C22.0961 8.88925 22.371 8.91629 22.6209 9.01974C22.8707 9.1232 23.0843 9.29843 23.2345 9.52327C23.3848 9.74811 23.465 10.0125 23.465 10.2829C23.4658 10.4625 23.431 10.6404 23.3629 10.8066C23.2947 10.9727 23.1944 11.1237 23.0677 11.251C22.941 11.3783 22.7904 11.4793 22.6246 11.5483C22.4588 11.6172 22.281 11.6528 22.1014 11.6529L22.0986 11.65ZM28.5714 0.385742H3.42857C2.51926 0.385742 1.64719 0.746966 1.00421 1.38995C0.361223 2.03293 0 2.905 0 3.81431L0 28.9572C0 29.8665 0.361223 30.7386 1.00421 31.3815C1.64719 32.0245 2.51926 32.3857 3.42857 32.3857H28.5714C29.4807 32.3857 30.3528 32.0245 30.9958 31.3815C31.6388 30.7386 32 29.8665 32 28.9572V3.81431C32 2.905 31.6388 2.03293 30.9958 1.38995C30.3528 0.746966 29.4807 0.385742 28.5714 0.385742ZM27.3486 21.1C27.2564 22.9307 26.8386 24.5529 25.5021 25.8857C24.1657 27.2186 22.545 27.645 20.7164 27.7322C18.83 27.8386 13.1743 27.8386 11.2879 27.7322C9.45714 27.64 7.84071 27.2215 6.50214 25.8857C5.16357 24.55 4.74286 22.9272 4.65571 21.1C4.54929 19.2129 4.54929 13.5565 4.65571 11.6715C4.74786 9.84074 5.16071 8.2186 6.50214 6.88574C7.84357 5.55289 9.46429 5.13146 11.2879 5.04431C13.1743 4.93789 18.83 4.93789 20.7164 5.04431C22.5471 5.13646 24.1686 5.55503 25.5021 6.89074C26.8357 8.22646 27.2614 9.84931 27.3486 11.68C27.455 13.56 27.455 19.2115 27.3486 21.1Z" fill="#091426"/>
</svg>
